<svg width="100%" height="100%" viewBox="0 0 718.8 158.87" xmlns="http://www.w3.org/2000/svg" xmlns:xlink="http://www.w3.org/1999/xlink"><defs><style>
              .cls-1 {
                fill: url(#linear-gradient-15_:rg9:);
              }
              .cls-2 {
                fill: url(#linear-gradient-13_:rg9:);
              }
              .cls-3 {
                fill: url(#linear-gradient-2_:rg9:);
              }
              .cls-4 {
                fill: url(#linear-gradient-10_:rg9:);
              }
              .cls-5 {
                fill: url(#linear-gradient-12_:rg9:);
              }
              .cls-6 {
                fill: url(#linear-gradient-4_:rg9:);
              }
              .cls-7 {
                fill: url(#linear-gradient-3_:rg9:);
              }
              .cls-8 {
                fill: url(#linear-gradient-5_:rg9:);
              }
              .cls-9 {
                fill: url(#linear-gradient-8_:rg9:);
              }
              .cls-10 {
                fill: url(#linear-gradient-14_:rg9:);
              }
              .cls-11 {
                fill: url(#linear-gradient-17_:rg9:);
              }
              .cls-12 {
                fill: url(#linear-gradient-7_:rg9:);
              }
              .cls-13 {
                fill: url(#linear-gradient-9_:rg9:);
              }
              .cls-14 {
                fill: url(#linear-gradient-11_:rg9:);
              }
              .cls-15 {
                fill: url(#linear-gradient-6_:rg9:);
              }
              .cls-16 {
                fill: url(#linear-gradient-16_:rg9:);
              }
              .cls-17 {
                fill: url(#linear-gradient_:rg9:);
              }
            </style><linearGradient id="linear-gradient_:rg9:" x1="133.74" y1="97.6" x2="156.4" y2="107.39" gradientUnits="userSpaceOnUse"><stop offset="0" stop-color="#387c9e"></stop><stop offset="1" stop-color="#9fe7f5"></stop></linearGradient><linearGradient id="linear-gradient-2_:rg9:" x1="57.88" y1="147.52" x2="166.65" y2="20.02" gradientUnits="userSpaceOnUse"><stop offset="0" stop-color="#229ed9"></stop><stop offset="1" stop-color="#9fe7f5"></stop></linearGradient><linearGradient id="linear-gradient-3_:rg9:" x1="101.74" y1="88.5" x2="75.47" y2="65.84" xlink:href="#linear-gradient_:rg9:"></linearGradient><linearGradient id="linear-gradient-4_:rg9:" x1="40.64" y1="42.52" x2="66.13" y2="4.41" xlink:href="#linear-gradient-2_:rg9:"></linearGradient><linearGradient id="linear-gradient-5_:rg9:" x1="42.29" y1="25.12" x2="59.27" y2="-.27" gradientUnits="userSpaceOnUse"><stop offset="0" stop-color="#fff" stop-opacity="0"></stop><stop offset=".54" stop-color="#fff" stop-opacity=".4"></stop><stop offset="1" stop-color="#fff" stop-opacity="0"></stop></linearGradient><linearGradient id="linear-gradient-6_:rg9:" x1="46" y1="137.88" x2="140.76" y2="26.8" xlink:href="#linear-gradient-5_:rg9:"></linearGradient><linearGradient id="linear-gradient-7_:rg9:" x1="51.7" y1="142.75" x2="146.46" y2="31.67" xlink:href="#linear-gradient-5_:rg9:"></linearGradient><linearGradient id="linear-gradient-8_:rg9:" x1="42.52" y1="33.73" x2="64.74" y2=".51" xlink:href="#linear-gradient-5_:rg9:"></linearGradient><linearGradient id="linear-gradient-9_:rg9:" x1="6.41" y1="119.35" x2="45.04" y2="95.01" xlink:href="#linear-gradient-2_:rg9:"></linearGradient><linearGradient id="linear-gradient-10_:rg9:" x1="55.43" y1="72.59" x2="11.91" y2="109.15" xlink:href="#linear-gradient-5_:rg9:"></linearGradient><linearGradient id="linear-gradient-11_:rg9:" x1="40.66" y1="97.05" x2="17.48" y2="111.22" xlink:href="#linear-gradient-5_:rg9:"></linearGradient><linearGradient id="linear-gradient-12_:rg9:" x1="42.69" y1="141.43" x2="119.94" y2="93.53" gradientUnits="userSpaceOnUse"><stop offset="0" stop-color="#000" stop-opacity=".2"></stop><stop offset="1" stop-color="#000" stop-opacity="0"></stop></linearGradient><linearGradient id="linear-gradient-13_:rg9:" x1="48.93" y1="22.61" x2="59.49" y2="31.37" xlink:href="#linear-gradient-12_:rg9:"></linearGradient><linearGradient id="linear-gradient-14_:rg9:" x1="118.55" y1="112.76" x2="165.41" y2="82.38" xlink:href="#linear-gradient-12_:rg9:"></linearGradient><linearGradient id="linear-gradient-15_:rg9:" x1="41.88" y1="44.08" x2="68.15" y2="62.11" xlink:href="#linear-gradient-12_:rg9:"></linearGradient><linearGradient id="linear-gradient-16_:rg9:" x1="341.05" y1="34.54" x2="341.05" y2="112" gradientUnits="userSpaceOnUse"><stop offset="0" stop-color="#9fe7f5"></stop><stop offset="1" stop-color="#229ed9"></stop></linearGradient><linearGradient id="linear-gradient-17_:rg9:" x1="602.01" y1="31.29" x2="602.01" y2="133.66" gradientUnits="userSpaceOnUse"><stop offset="0" stop-color="#fff"></stop><stop offset="1" stop-color="#c6c6c6"></stop></linearGradient></defs><g id="_x31_"><g id="_x32_"><g><path class="cls-17" d="M176,93.96l-72.28,41.73c42.09-33.42,51.69-82.68,72.28-70.78,11.18,6.46,11.18,22.59,0,29.05Z"></path><path class="cls-3" d="M176,64.91c-20.6-11.89-30.2,37.37-72.28,70.78l-36.21,20.91c-11.18,6.45-25.16-1.61-25.16-14.53v-32.19c42.67-5.61,58.84-49.35,80.98-75.38l2.77-.43c21.95-3.4,43.12,9.68,49.9,30.84h0Z"></path><path class="cls-7" d="M123.33,34.5c-22.14,26.03-38.31,69.77-80.98,75.38v-53.53c14.77-11.11,25.95-30.88,38.86-46.17l15.18,8.77,26.94,15.56Z"></path><path class="cls-6" d="M81.2,10.18c-12.9,15.29-24.08,35.07-38.86,46.17V16.79c0-12.63,13.38-20.62,24.43-14.92.25.12.49.26.73.4l13.7,7.91Z"></path><path class="cls-8" d="M66.77,1.87c-8.23,10.28-15.88,22.06-24.43,31.74v-16.82c0-12.63,13.38-20.62,24.43-14.92Z"></path><path class="cls-15" d="M156.13,39.91c-15.86,2.99-28,43.6-64.3,72.42l-36.21,20.91c-4.33,2.5-9.08,2.82-13.27,1.52v-24.88c42.67-5.61,58.84-49.35,80.98-75.38l2.77-.43c10.72-1.66,21.27.61,30.03,5.84Z"></path><path class="cls-12" d="M156.13,39.91c-15.86,2.99-28,43.6-64.3,72.42l-36.21,20.91c-4.33,2.5-9.08,2.82-13.27,1.52v-1.78c3.58.57,7.41-.01,10.95-2.06l36.21-20.91c35.26-27.99,47.72-67.11,62.94-72.07,1.26.6,2.48,1.26,3.68,1.97Z"></path><path class="cls-9" d="M66.77,1.87c-8.23,10.28-15.88,22.06-24.43,31.74v-4.03c7.58-8.97,14.53-19.43,21.91-28.76.85.27,1.69.62,2.51,1.05Z"></path><path class="cls-13" d="M42.35,122.92s-14.87,20.89-39.47,16.84c-2.85-.47-3.88-4.02-1.71-5.93,2.96-2.61,6.51-6.4,8.94-11.17,1.68-3.29-.46-7.24-4.13-7.66-.76-.09-1.58-.18-2.43-.28-3.14-.37-4.13-4.44-1.51-6.21,9.71-6.55,26.33-19.82,40.31-41.38v55.79Z"></path><path class="cls-4" d="M42.35,67.12v31.53s-12.6,17.71-33.81,17.35c-.72-.53-1.59-.9-2.56-1.01-.76-.09-1.58-.18-2.43-.28-2.48-.29-3.62-2.89-2.69-4.84.09-.11.2-.21.31-.31.59-.52,1.2-1.09,1.83-1.7,9.81-6.75,25.82-19.86,39.36-40.73Z"></path><path class="cls-14" d="M42.35,98.65v2.58s-12.6,17.71-33.81,17.35c-.72-.53-1.59-.9-2.56-1.01-.76-.09-1.58-.18-2.43-.28-2.41-.29-3.55-2.76-2.76-4.69.42,1.08,1.38,1.95,2.76,2.11.86.1,1.67.2,2.43.28.98.11,1.84.47,2.56,1.01,21.21.36,33.81-17.35,33.81-17.35Z"></path><path class="cls-5" d="M176,64.91c-20.59-11.89-30.19,37.37-72.28,70.79l-36.21,20.9c-11.18,6.46-25.16-1.61-25.16-14.52v-7.31c4.19,1.3,8.94.98,13.27-1.52l36.21-20.91c36.3-28.82,48.44-69.43,64.3-72.42,9.18,5.47,16.4,14.17,19.87,25Z"></path><path class="cls-2" d="M81.2,10.18c-12.9,15.29-24.08,35.07-38.86,46.17v-22.74c8.54-9.68,16.2-21.45,24.43-31.74.25.12.49.26.73.4l13.7,7.91Z"></path><path class="cls-10" d="M176,93.96l-72.28,41.73c42.09-33.42,51.69-82.68,72.28-70.78,11.18,6.46,11.18,22.59,0,29.05Z"></path><path class="cls-1" d="M123.33,34.5c-22.14,26.03-38.31,69.77-80.98,75.38v-53.53c14.77-11.11,25.95-30.88,38.86-46.17l15.18,8.77,26.94,15.56Z"></path></g><path class="cls-16" d="M210.34,34.54h59.04v11.92h-46.04v20.04h41.71v11.92h-41.71v31.96h-13V34.54ZM309.58,75.81c0-2.45-.47-4.4-1.41-5.85-.94-1.44-2.13-2.53-3.58-3.25-1.45-.72-3.02-1.17-4.71-1.35-1.7-.18-3.3-.27-4.82-.27s-3.11.09-4.77.27c-1.66.18-3.18.6-4.55,1.25-1.37.65-2.51,1.62-3.41,2.92-.9,1.3-1.35,3.11-1.35,5.42h-11.38c0-7.29,2.27-12.51,6.82-15.65,4.55-3.14,10.76-4.71,18.63-4.71,4.55,0,8.5.4,11.86,1.19,3.36.8,6.16,2.08,8.4,3.85,2.24,1.77,3.92,4.14,5.04,7.1,1.12,2.96,1.68,6.61,1.68,10.94v32.72h-12.46v-7.37c-.51,1.3-1.25,2.51-2.22,3.63-.97,1.12-2.22,2.08-3.74,2.87-1.52.79-3.36,1.41-5.53,1.84-2.17.43-4.73.65-7.69.65-3.4,0-6.55-.25-9.48-.76-2.92-.51-5.45-1.41-7.58-2.71-2.13-1.3-3.79-3.05-4.98-5.25-1.19-2.2-1.79-4.96-1.79-8.29,0-5.42,2.06-9.41,6.18-11.97,4.12-2.56,10-4.24,17.66-5.04l19.17-1.95v-.22ZM292.24,86.75c-1.73.22-3.38.51-4.93.87-1.55.36-2.91.85-4.06,1.46-1.16.61-2.06,1.39-2.71,2.33-.65.94-.97,2.06-.97,3.36,0,2.1.92,3.72,2.76,4.88,1.84,1.16,5.11,1.73,9.8,1.73,3.03,0,5.61-.29,7.75-.87,2.13-.58,3.9-1.32,5.31-2.22,1.41-.9,2.46-1.9,3.14-2.98.69-1.08,1.1-2.13,1.25-3.14v-7.15l-17.33,1.73ZM329.62,110.37v-54.17h12.46v7.47c1.66-2.89,3.86-5.13,6.61-6.72,2.74-1.59,5.99-2.38,9.75-2.38,6.57,0,11.57,1.93,15,5.8,3.43,3.86,5.15,9.77,5.15,17.71h-11.38c0-3.54-.9-6.41-2.71-8.61-1.81-2.2-4.73-3.3-8.77-3.3-4.33,0-7.69,1.43-10.08,4.28-2.38,2.85-3.58,7.1-3.58,12.73v27.19h-12.46ZM421.7,110.37v-31.31c0-1.73-.18-3.39-.54-4.98-.36-1.59-.99-2.96-1.9-4.12-.9-1.15-2.13-2.08-3.68-2.76-1.55-.69-3.52-1.03-5.9-1.03-8.81,0-13.22,5.67-13.22,17.01v27.19h-12.46v-54.17h12.46v7.47c1.73-2.89,4.03-5.13,6.88-6.72,2.85-1.59,6.45-2.38,10.78-2.38,8.16,0,13.83,3,17.01,8.99,1.66-2.6,3.92-4.75,6.77-6.45,2.85-1.7,6.55-2.55,11.1-2.55,3.97,0,7.38.47,10.24,1.41,2.85.94,5.2,2.44,7.04,4.5,1.84,2.06,3.21,4.7,4.12,7.91.9,3.21,1.35,7.13,1.35,11.75v30.23h-12.46v-29.14c0-2.31-.18-4.39-.54-6.23-.36-1.84-.98-3.41-1.84-4.71-.87-1.3-2.08-2.31-3.63-3.03-1.55-.72-3.52-1.08-5.9-1.08-2.17,0-4.08.34-5.74,1.03-1.66.69-3.05,1.62-4.17,2.82-1.12,1.19-1.95,2.56-2.49,4.12-.54,1.55-.81,3.23-.81,5.04v31.2h-12.46Z"></path><path class="cls-11" d="M516.11,73.1c-4.33-1.08-8.33-2.11-11.97-3.09-3.65-.98-6.77-2.24-9.37-3.79-2.6-1.55-4.64-3.52-6.12-5.9-1.48-2.38-2.22-5.49-2.22-9.32,0-7,2.47-12.04,7.42-15.11,4.95-3.07,12.76-4.6,23.45-4.6,4.69,0,8.9.45,12.62,1.35,3.72.9,6.86,2.37,9.42,4.39,2.56,2.02,4.53,4.68,5.9,7.96,1.37,3.29,2.06,7.31,2.06,12.08h-5.42c0-4.4-.67-7.93-2-10.56-1.34-2.64-3.14-4.64-5.42-6.01-2.27-1.37-4.89-2.26-7.85-2.65-2.96-.4-6.1-.6-9.43-.6-4.84,0-8.87.31-12.08.92-3.21.61-5.76,1.52-7.64,2.71-1.88,1.19-3.2,2.64-3.95,4.33-.76,1.7-1.14,3.67-1.14,5.9,0,2.38.6,4.44,1.79,6.17s2.85,3.23,4.98,4.5c2.13,1.26,4.69,2.31,7.69,3.14,3,.83,6.3,1.57,9.91,2.22,5.27.94,9.88,1.97,13.81,3.09,3.94,1.12,7.2,2.53,9.8,4.23,2.6,1.7,4.53,3.77,5.8,6.23,1.26,2.46,1.9,5.49,1.9,9.1,0,7.29-2.56,12.55-7.69,15.76-5.13,3.21-13.22,4.82-24.27,4.82-4.77,0-9.06-.45-12.89-1.35-3.83-.9-7.06-2.36-9.7-4.39-2.64-2.02-4.68-4.68-6.12-7.96-1.45-3.29-2.17-7.31-2.17-12.08h5.42c0,4.55.7,8.16,2.11,10.83,1.41,2.67,3.3,4.71,5.69,6.12,2.38,1.41,5.15,2.33,8.29,2.76,3.14.43,6.41.65,9.8.65,17.04,0,25.57-4.95,25.57-14.84,0-3.61-.92-6.43-2.76-8.45-1.84-2.02-4.1-3.58-6.77-4.66-2.67-1.08-5.51-1.88-8.5-2.38-3-.5-5.65-1.01-7.96-1.52ZM555.32,112.75c0,3.18.23,5.78.7,7.8.47,2.02,1.08,3.61,1.84,4.77.76,1.15,1.66,1.93,2.71,2.33,1.05.4,2.11.6,3.2.6,1.73,0,3.25-.38,4.55-1.14s2.44-1.77,3.41-3.03c.97-1.26,1.82-2.75,2.55-4.44.72-1.7,1.41-3.49,2.06-5.36l2.06-5.96-29.25-53.73h6.17l25.57,46.8,16.36-46.8h5.63l-18.85,53.3c-1.45,4.12-2.75,7.76-3.9,10.94-1.16,3.18-2.47,5.87-3.95,8.07-1.48,2.2-3.21,3.88-5.2,5.04-1.99,1.16-4.5,1.73-7.53,1.73-2.38,0-4.44-.53-6.17-1.57-1.73-1.05-3.14-2.51-4.22-4.39-1.08-1.88-1.88-4.1-2.38-6.66-.51-2.56-.76-5.33-.76-8.29h5.42ZM653.26,108.75v-31.2c0-2.82-.27-5.4-.81-7.75-.54-2.35-1.54-4.37-2.98-6.07-1.45-1.7-3.47-3.01-6.07-3.95-2.6-.94-5.92-1.41-9.97-1.41-7.3,0-12.77,1.95-16.41,5.85-3.65,3.9-5.47,9.68-5.47,17.33v27.19h-5.42v-54.17h5.42v8.23c1.88-3.18,4.57-5.61,8.07-7.31,3.5-1.7,8.21-2.55,14.14-2.55,8.81,0,15.17,2.11,19.07,6.34s5.85,10.35,5.85,18.36v31.09h-5.42ZM692.47,52.95c4.33,0,8.14.6,11.43,1.79,3.29,1.19,6.03,2.85,8.23,4.98,2.2,2.13,3.86,4.6,4.98,7.42,1.12,2.82,1.68,5.85,1.68,9.1h-5.42c0-2.53-.4-4.88-1.19-7.04-.79-2.17-2.06-4.06-3.79-5.69s-3.94-2.89-6.61-3.79c-2.67-.9-5.85-1.35-9.53-1.35-3.25,0-6.25.4-8.99,1.19-2.75.8-5.09,2.11-7.04,3.95-1.95,1.84-3.47,4.22-4.55,7.15-1.08,2.92-1.62,6.52-1.62,10.78s.6,8.12,1.79,11.16c1.19,3.03,2.8,5.45,4.82,7.26,2.02,1.81,4.39,3.11,7.1,3.9,2.71.79,5.58,1.19,8.61,1.19,3.75,0,6.95-.45,9.59-1.35,2.64-.9,4.8-2.17,6.5-3.79,1.7-1.62,2.94-3.52,3.74-5.69.79-2.17,1.19-4.51,1.19-7.04h5.42c0,3.25-.51,6.28-1.52,9.1-1.01,2.82-2.56,5.29-4.66,7.42-2.1,2.13-4.8,3.79-8.12,4.98-3.32,1.19-7.26,1.79-11.81,1.79-9.25,0-16.32-2.42-21.23-7.26-4.91-4.84-7.37-11.99-7.37-21.45s2.28-16.7,6.83-21.5c4.55-4.8,11.74-7.2,21.56-7.2Z"></path></g></g></svg>